<?xml version="1.0" encoding="UTF-8"?>
<svg xmlns="http://www.w3.org/2000/svg" xmlns:xlink="http://www.w3.org/1999/xlink" width="48pt" height="48pt" viewBox="0 0 48 48" version="1.1">
<g id="surface1">
<path style=" stroke:none;fill-rule:nonzero;fill:#4CAF50;fill-opacity:1;" d="M 38.113281 18.152344 C 37.21875 18.152344 36.472656 18.59375 36.171875 19.320313 C 35.277344 20.636719 33.335938 20.929688 32.140625 20.347656 C 31.917969 19.839844 19.292969 16.398438 19.292969 16.546875 C 17.652344 17.421875 16.15625 14.644531 16.308594 13.328125 L 16.308594 13.183594 C 16.457031 12.890625 16.457031 12.597656 16.457031 12.304688 C 16.457031 10.699219 15.109375 9.382813 13.46875 9.382813 C 11.824219 9.382813 10.480469 10.699219 10.480469 12.304688 C 10.480469 13.621094 11.378906 14.644531 12.421875 15.085938 C 14.085938 15.761719 16.390625 17.824219 16.234375 19.167969 C 16.898438 20.359375 15.296875 26.617188 15.410156 27.066406 C 14.515625 27.945313 12.722656 27.796875 11.976563 27.503906 C 11.675781 27.066406 11.078125 26.921875 10.480469 26.921875 C 8.839844 26.921875 7.492188 28.234375 7.492188 29.84375 C 7.492188 31.449219 8.839844 32.765625 10.480469 32.765625 C 11.527344 32.765625 12.273438 32.328125 12.871094 31.597656 C 13.765625 30.28125 15.261719 29.113281 16.605469 29.113281 C 16.800781 29.398438 32.890625 23.121094 32.890625 22.976563 C 33.035156 22.390625 35.429688 21.804688 37.519531 22.242188 L 38.117188 22.242188 C 39.3125 22.242188 40.359375 21.222656 40.359375 20.050781 C 40.359375 18.882813 39.308594 18.152344 38.113281 18.152344 Z "/>
<path style=" stroke:none;fill-rule:nonzero;fill:#2E7D32;fill-opacity:1;" d="M 31.542969 32.914063 C 30.347656 32.914063 30.945313 30.140625 30.945313 29.699219 C 31.09375 29.480469 30.050781 17.570313 30.050781 17.570313 C 30.199219 17.128906 30.347656 16.691406 31.09375 16.691406 C 31.09375 16.691406 31.09375 16.691406 31.242188 16.691406 L 31.394531 16.691406 C 33.035156 16.691406 34.378906 15.378906 34.378906 13.769531 C 34.378906 12.160156 33.035156 10.847656 31.394531 10.847656 C 29.75 10.847656 28.40625 12.160156 28.40625 13.769531 C 28.40625 14.0625 28.40625 14.351563 28.554688 14.644531 C 28.554688 14.644531 29.152344 16.105469 27.808594 15.960938 C 27.808594 15.960938 16.511719 19.882813 15.960938 19.980469 C 14.585938 22.503906 10.917969 21.214844 9.882813 20.347656 C 9.585938 19.90625 8.988281 19.613281 8.238281 19.613281 C 7.046875 19.613281 6 20.640625 6 21.808594 C 6 22.976563 7.046875 24 8.242188 24 C 8.691406 24 9.136719 23.855469 9.4375 23.707031 C 11.226563 22.828125 14.515625 23.414063 14.964844 25.023438 L 14.964844 25.167969 C 15.03125 25.496094 17.371094 30.019531 17.652344 30.429688 C 19.144531 33.207031 15.410156 34.375 15.410156 34.375 C 14.363281 34.375 13.46875 35.253906 13.46875 36.421875 C 13.46875 37.59375 14.515625 38.613281 15.710938 38.613281 C 16.902344 38.613281 17.949219 37.59375 17.949219 36.421875 C 18.25 34.085938 19.445313 32.621094 21.683594 32.476563 C 22.03125 32.589844 27.359375 32.183594 27.808594 32.039063 C 29.453125 32.328125 28.554688 33.644531 28.554688 35.839844 C 28.554688 37.445313 29.898438 38.761719 31.542969 38.761719 C 33.1875 38.761719 34.53125 37.445313 34.53125 35.839844 C 34.53125 34.230469 33.1875 32.914063 31.542969 32.914063 Z "/>
<path style=" stroke:none;fill-rule:nonzero;fill:#4CAF50;fill-opacity:1;" d="M 33 24 C 33 28.96875 28.96875 33 24 33 C 19.03125 33 15 28.96875 15 24 C 15 19.03125 19.03125 15 24 15 C 28.96875 15 33 19.03125 33 24 Z "/>
<path style=" stroke:none;fill-rule:nonzero;fill:#8BC34A;fill-opacity:1;" d="M 26.316406 32.476563 C 26.644531 31.832031 25.515625 31.640625 24.625 31.671875 C 23.734375 31.703125 22.875 32.21875 23.039063 32.785156 C 25.410156 36.425781 23.625 36.863281 22.578125 37.59375 C 21.683594 38.03125 21.085938 39.054688 21.085938 40.078125 C 21.085938 41.683594 22.429688 43 24.074219 43 C 25.71875 43 27.0625 41.683594 27.0625 40.078125 C 27.0625 37.300781 25.269531 33.355469 26.316406 32.476563 Z "/>
<path style=" stroke:none;fill-rule:nonzero;fill:#8BC34A;fill-opacity:1;" d="M 38.863281 26.921875 C 38.265625 26.921875 37.667969 27.070313 37.21875 27.359375 C 35.4375 28.089844 33.804688 26.792969 32.609375 25.914063 C 32.015625 25.546875 31.339844 26.484375 31.140625 26.859375 C 30.941406 27.234375 30.640625 28.5625 31.839844 28.53125 C 33.875 27.875 36.320313 31.308594 36.320313 31.308594 C 36.769531 32.328125 37.816406 32.914063 39.011719 32.914063 C 40.65625 32.914063 41.996094 31.597656 41.996094 29.992188 C 41.851563 28.238281 40.507813 26.921875 38.863281 26.921875 Z "/>
<path style=" stroke:none;fill-rule:nonzero;fill:#8BC34A;fill-opacity:1;" d="M 21.386719 9.53125 C 23.328125 13.476563 23.179688 14.9375 22.132813 15.378906 C 21.203125 16.046875 22.703125 16.953125 23.8125 16.8125 C 24.921875 16.671875 25.921875 16.125 25.230469 15.160156 C 23.515625 12.132813 25.71875 10.117188 25.71875 10.117188 C 26.464844 9.679688 26.910156 8.800781 26.910156 7.925781 C 26.910156 6.316406 25.566406 5 23.925781 5 C 22.28125 5 20.9375 6.316406 20.9375 7.921875 C 20.9375 8.359375 21.085938 8.800781 21.238281 9.238281 C 21.238281 9.386719 21.238281 9.386719 21.386719 9.53125 Z "/>
<path style=" stroke:none;fill-rule:nonzero;fill:#C5E1A5;fill-opacity:1;" d="M 22.433594 24 C 20.789063 24 19.445313 22.683594 19.445313 21.078125 C 19.445313 19.46875 20.789063 18.152344 22.433594 18.152344 C 24.074219 18.152344 25.417969 19.46875 25.417969 21.078125 C 25.417969 22.683594 24.074219 24 22.433594 24 Z "/>
<path style=" stroke:none;fill-rule:nonzero;fill:#F1F8E9;fill-opacity:1;" d="M 20.9375 28.386719 C 20.042969 28.386719 19.445313 27.800781 19.445313 26.921875 C 19.445313 26.046875 20.039063 25.460938 20.9375 25.460938 C 21.835938 25.460938 22.433594 26.046875 22.433594 26.921875 C 22.433594 27.800781 21.835938 28.386719 20.9375 28.386719 Z "/>
<path style=" stroke:none;fill-rule:nonzero;fill:#DCEDC8;fill-opacity:1;" d="M 26.164063 29.992188 C 24.972656 29.992188 23.925781 28.96875 23.925781 27.800781 C 23.925781 26.628906 24.96875 25.609375 26.164063 25.609375 C 27.359375 25.609375 28.40625 26.628906 28.40625 27.800781 C 28.40625 28.96875 27.359375 29.992188 26.164063 29.992188 Z "/>
</g>
</svg>
